<svg width="851" height="320" viewBox="0 0 851 320" fill="none" xmlns="http://www.w3.org/2000/svg">
<g clip-path="url(#clip0_27_1306)">
<path d="M268.673 138.514L268.686 138.521C264.46 136.295 260.266 133.999 256.072 131.71C245.617 126 235.494 119.556 223.188 118.287C219.99 117.956 216.741 117.401 213.804 116.184C213.595 114.8 214.058 113.798 214.376 112.754C216.664 105.244 219.045 97.7616 221.163 90.2025C222.459 85.5849 221.134 82.788 216.973 80.5113C207.019 75.0651 196.864 69.9626 187.123 64.1569C181.753 60.9586 177.102 60.1879 172.182 64.4202C172.069 64.5165 171.806 64.433 171.491 64.433C171.266 63.9257 170.964 63.4151 170.803 62.8596C167.397 51.1292 163.974 39.4021 160.631 27.6557C159.626 24.1203 157.755 21.5546 154.374 19.7981C147.4 16.1759 140.616 12.1908 133.713 8.42738C128.821 5.76213 123.952 3.03586 118.913 0.672453C115.034 -1.14827 111.158 0.874756 110.05 4.97539C107.016 16.1887 104.014 27.4085 101.048 38.6379C96.7637 54.8574 92.4475 71.0705 88.3307 87.3349C87.5722 90.3277 86.1228 90.514 83.6353 89.936C75.0223 87.9354 66.2808 86.4005 57.7899 83.9857C52.0404 82.3512 46.8373 87.1519 49.3184 93.4682C53.4224 103.917 56.7133 114.681 60.5602 125.236C61.4504 127.68 60.798 128.884 58.7959 130.053C50.7164 134.773 42.6529 139.519 34.6249 144.326C24.3793 150.463 14.259 156.815 3.9106 162.778C-0.67871 165.42 -1.8871 172.854 3.89453 175.828C13.5391 180.786 22.9877 186.123 32.4716 191.386C36.386 193.557 40.1912 195.888 44.7001 196.71C47.4319 197.208 50.1282 197.917 52.831 198.563C56.6169 199.468 56.5976 199.475 55.4021 203.045C53.0046 210.21 50.575 217.361 48.261 224.551C46.8052 229.072 47.7404 231.888 51.507 233.956C63.1955 240.375 74.942 246.691 86.6691 253.043C89.4266 254.536 92.1679 254.514 94.9286 252.988C95.5842 252.626 96.198 251.964 97.2361 252.263C97.4868 253.037 97.7953 253.868 98.0267 254.719C101.533 267.66 105.142 280.572 108.455 293.561C109.484 297.588 111.66 300.099 115.259 301.987C125.399 307.299 135.419 312.838 145.491 318.281C152.163 321.887 156.717 319.78 158.607 312.334C161.001 302.899 163.476 293.484 165.96 283.819C170.893 264.934 175.826 246.303 180.628 227.636C181.229 225.296 181.942 224.57 184.481 225.244C193.798 227.717 203.176 229.971 212.547 232.228C217.143 233.336 221.019 230.71 221.404 226.304C221.552 224.605 221.054 222.955 220.505 221.352C217.101 211.385 213.736 201.401 210.22 191.469C209.558 189.604 209.806 188.563 211.512 187.565C215.976 184.947 220.357 182.192 224.785 179.511C239.688 170.494 254.648 161.577 269.473 152.435C275.522 148.703 274.978 141.835 268.673 138.514ZM268.342 148.671V148.678C267.442 149.58 266.314 150.286 265.209 150.948C246.254 162.318 227.315 173.715 208.286 184.964C205.679 186.505 204.94 187.854 206.03 190.846C209.642 200.75 212.936 210.772 216.339 220.752C216.693 221.786 216.979 222.845 217.239 223.905C218.133 227.563 216.471 229.297 212.753 228.43C208.684 227.482 204.661 226.346 200.608 225.334C194.434 223.79 188.219 222.386 182.087 220.697C179.603 220.013 178.744 220.813 178.14 223.115C170.822 250.991 163.431 278.848 156.052 306.711C155.544 308.634 154.956 310.536 154.451 312.459C153.979 314.267 153.381 316.107 151.151 316.104C148.92 316.104 148.679 314.093 148.271 312.485C143.598 294.094 138.967 275.698 134.294 257.307C132.141 248.833 129.924 240.378 127.722 231.917C127.578 231.358 127.324 230.828 127.134 230.315C125.662 229.875 124.766 230.841 123.785 231.413C114.414 236.885 105.087 242.437 95.6806 247.847C93.8938 248.875 91.9205 251.136 89.809 249.591C87.5658 247.953 89.3687 245.558 90.0018 243.57C93.5884 232.293 97.2233 221.028 100.858 209.763C101.941 206.411 101.851 206.241 98.3256 205.396C80.3347 201.09 62.3503 196.774 44.3563 192.481C42.489 192.034 40.3679 191.762 40.0305 189.472C39.6834 187.118 41.5988 185.972 43.3118 184.935C59.9175 174.881 76.16 164.229 92.9714 154.506C95.0379 153.311 96.9372 151.789 99.0808 150.762C102.176 149.278 102.086 147.21 101.089 144.403C97.4289 134.096 93.9259 123.733 90.3971 113.377C90.0211 112.273 89.2434 111.126 89.7705 109.941C90.7314 107.777 92.2451 106.888 94.8033 107.559C104.612 110.124 114.491 112.424 124.287 115.034C126.925 115.738 127.867 114.919 128.391 112.501C129.062 109.396 129.978 106.342 130.791 103.265C137.335 78.3758 143.746 53.9615 150.155 29.5439C150.306 28.9659 150.412 28.375 150.604 27.8131C151.138 26.2621 151.787 24.7561 153.77 24.7304C155.682 24.7047 156.264 26.2204 156.691 27.6429C158.915 35.0735 161.069 42.5234 163.248 49.9668C168.361 67.4258 173.471 84.8848 178.59 102.344C178.892 103.371 178.931 104.527 179.911 105.298C181.412 105.366 182.508 104.396 183.671 103.696C192.959 98.0891 202.221 92.4407 211.49 86.8083C212.001 86.4968 212.505 86.1789 213.032 85.8932C214.267 85.2284 215.578 84.3807 216.905 85.4436C218.197 86.4776 217.831 88.0189 217.464 89.3419C216.134 94.1297 214.745 98.9047 213.302 103.66C210.992 111.271 208.703 118.891 206.226 126.45C205.409 128.942 206.232 129.876 208.552 130.352C222.185 133.139 235.822 135.923 249.432 138.816C255.265 140.056 261.06 141.494 266.841 142.965C270.084 143.79 270.72 146.282 268.342 148.671Z" fill="#313131"/>
<path d="M266.841 142.965C261.06 141.494 255.265 140.056 249.432 138.816C235.822 135.923 222.185 133.139 208.552 130.352C206.232 129.876 205.409 128.942 206.226 126.45C208.703 118.891 210.992 111.271 213.302 103.66C214.745 98.9047 216.134 94.1297 217.464 89.3419C217.831 88.0189 218.197 86.4776 216.905 85.4436C215.578 84.3807 214.267 85.2284 213.032 85.8932C212.505 86.1789 212.001 86.4968 211.49 86.8083C202.221 92.4407 192.959 98.0891 183.671 103.696C182.508 104.396 181.412 105.366 179.911 105.298C178.931 104.527 178.892 103.371 178.59 102.344C173.471 84.8848 168.361 67.4258 163.248 49.9668C161.069 42.5234 158.915 35.0735 156.691 27.6429C156.264 26.2204 155.682 24.7047 153.77 24.7304C151.787 24.7561 151.138 26.2621 150.604 27.8131C150.412 28.375 150.306 28.9659 150.155 29.5439C143.746 53.9615 137.335 78.3758 130.791 103.265C129.978 106.342 129.062 109.396 128.391 112.501C127.867 114.919 126.925 115.738 124.287 115.034C114.491 112.424 104.612 110.124 94.8033 107.559C92.2451 106.888 90.7314 107.777 89.7705 109.941C89.2434 111.126 90.0211 112.273 90.3971 113.377C93.9259 123.733 97.4289 134.096 101.089 144.403C102.086 147.21 102.176 149.278 99.0808 150.762C96.9372 151.789 95.0379 153.311 92.9714 154.506C76.16 164.229 59.9175 174.881 43.3118 184.935C41.5988 185.972 39.6834 187.118 40.0305 189.472C40.3679 191.762 42.489 192.034 44.3563 192.481C62.3503 196.774 80.3347 201.09 98.3256 205.396C101.851 206.241 101.941 206.411 100.858 209.763C97.2233 221.028 93.5884 232.293 90.0018 243.57C89.3687 245.558 87.5658 247.953 89.809 249.591C91.9205 251.136 93.8938 248.875 95.6806 247.847C105.087 242.437 114.414 236.885 123.785 231.413C124.766 230.841 125.662 229.875 127.134 230.315C127.324 230.828 127.578 231.358 127.722 231.917C129.924 240.378 132.141 248.833 134.294 257.307C138.967 275.698 143.598 294.094 148.271 312.485C148.679 314.093 148.92 316.104 151.151 316.104C153.381 316.107 153.979 314.267 154.451 312.459C154.956 310.536 155.544 308.634 156.052 306.711C163.431 278.848 170.822 250.991 178.14 223.115C178.744 220.813 179.603 220.013 182.087 220.697C188.219 222.386 194.434 223.79 200.608 225.334C204.661 226.346 208.684 227.482 212.753 228.43C216.471 229.297 218.133 227.563 217.239 223.905C216.979 222.845 216.693 221.786 216.339 220.752C212.936 210.772 209.642 200.75 206.03 190.846C204.94 187.854 205.679 186.505 208.286 184.964C227.315 173.715 246.254 162.318 265.209 150.948C266.314 150.286 267.442 149.58 268.342 148.678V148.671C270.72 146.282 270.084 143.79 266.841 142.965Z" fill="#F5F6F6"/>
<path d="M349.867 44.1692H439.421C456.639 44.1692 469.944 48.2098 479.335 56.291C488.95 64.3723 493.758 75.7084 493.758 90.2995V279.871H538.702V278.524C536.243 274.708 534.454 270.219 533.336 265.056C532.441 259.668 531.994 251.699 531.994 241.149V224.65C531.994 210.059 528.081 199.396 520.255 192.662C512.652 185.703 500.689 182.223 484.366 182.223H385.42V149.225H476.316C497.335 149.225 512.429 146.419 521.597 140.807C530.764 135.195 535.348 125.879 535.348 112.86C535.348 99.8398 530.764 90.524 521.597 84.912C512.429 79.3 497.335 76.4941 476.316 76.4941H372.675L390.116 58.9848V279.871H349.867V44.1692Z" fill="#313131"/>
<path d="M567.935 106.462H606.843V279.871H567.935V106.462ZM567.935 44.1692H606.843V85.2487H567.935V44.1692Z" fill="#313131"/>
<path d="M662.537 117.574C662.537 103.88 665.555 94.0034 671.593 87.9425C677.854 81.6571 687.581 78.5144 700.773 78.5144H737.668V40.1286H724.923C709.27 40.1286 701.444 48.3221 701.444 64.709V279.871H662.537V117.574ZM632.35 106.462H737.668V134.746H632.35V106.462Z" fill="#313131"/>
<path d="M775.868 117.574C775.868 103.88 778.887 94.0034 784.924 87.9425C791.185 81.6571 800.912 78.5144 814.105 78.5144H851V40.1286H838.254C822.602 40.1286 814.776 48.3221 814.776 64.709V279.871H775.868V117.574ZM745.681 106.462H851V134.746H745.681V106.462Z" fill="#313131"/>
</g>
<defs>
<clipPath id="clip0_27_1306">
<rect width="851" height="320" fill="white"/>
</clipPath>
</defs>
</svg>
