<svg width="653" height="765" viewBox="0 0 653 765" fill="none" xmlns="http://www.w3.org/2000/svg">
<g clip-path="url(#clip0_26_831)">
<path d="M640.961 331.136L640.992 331.151C630.909 325.831 620.904 320.342 610.898 314.869C585.958 301.22 561.807 285.813 532.45 282.78C524.821 281.99 517.07 280.662 510.062 277.752C509.564 274.444 510.668 272.048 511.427 269.554C516.886 251.598 522.567 233.711 527.619 215.64C530.709 204.601 527.55 197.915 517.622 192.472C493.877 179.453 469.649 167.254 446.41 153.375C433.599 145.729 422.505 143.887 410.766 154.005C410.498 154.235 409.869 154.035 409.118 154.035C408.581 152.822 407.861 151.602 407.477 150.274C399.35 122.231 391.185 94.1957 383.211 66.1145C380.811 57.6625 376.349 51.5289 368.284 47.3297C351.646 38.6705 335.461 29.1437 318.992 20.1467C307.323 13.7751 295.708 7.2576 283.686 1.60758C274.432 -2.74508 265.185 2.09121 262.54 11.8943C255.302 38.7012 248.141 65.5234 241.065 92.3687C230.845 131.143 220.548 169.903 210.726 208.785C208.917 215.94 205.459 216.385 199.525 215.003C178.977 210.221 158.123 206.551 137.867 200.778C124.15 196.871 111.738 208.348 117.657 223.448C127.447 248.427 135.298 274.16 144.476 299.393C146.6 305.235 145.043 308.113 140.267 310.908C120.992 322.192 101.755 333.538 82.603 345.03C58.1605 359.7 34.0171 374.885 9.32933 389.14C-1.61917 395.458 -4.50196 413.23 9.29099 420.338C32.2997 432.191 54.8407 444.95 77.4661 457.532C86.8045 462.721 95.8822 468.294 106.639 470.26C113.156 471.45 119.589 473.146 126.037 474.689C135.068 476.854 135.022 476.869 132.17 485.406C126.451 502.532 120.654 519.628 115.134 536.816C111.661 547.625 113.892 554.357 122.878 559.301C150.763 574.647 178.786 589.747 206.763 604.931C213.341 608.501 219.881 608.447 226.467 604.801C228.031 603.933 229.495 602.352 231.972 603.066C232.57 604.916 233.306 606.904 233.858 608.938C242.223 639.875 250.833 670.743 258.737 701.795C261.191 711.422 266.381 717.425 274.968 721.939C299.158 734.636 323.063 747.878 347.092 760.89C363.009 769.511 373.873 764.475 378.381 746.673C384.093 724.119 389.996 701.611 395.923 678.504C407.692 633.358 419.461 588.818 430.915 544.194C432.349 538.597 434.051 536.862 440.108 538.474C462.335 544.385 484.707 549.774 507.064 555.171C518.028 557.82 527.274 551.54 528.194 541.008C528.547 536.947 527.359 533.001 526.048 529.17C517.928 505.342 509.901 481.475 501.513 457.731C499.934 453.271 500.524 450.784 504.595 448.397C515.245 442.14 525.695 435.553 536.26 429.143C571.812 407.587 607.502 386.269 642.87 364.414C657.299 355.494 656.003 339.073 640.961 331.136ZM640.171 355.417V355.432C638.024 357.589 635.333 359.278 632.696 360.86C587.476 388.043 542.294 415.287 496.898 442.178C490.68 445.863 488.916 449.087 491.515 456.242C500.133 479.917 507.992 503.876 516.111 527.735C516.955 530.207 517.637 532.74 518.258 535.273C520.389 544.017 516.426 548.162 507.555 546.09C497.848 543.825 488.249 541.108 478.581 538.689C463.853 534.997 449.025 531.642 434.396 527.604C428.47 525.969 426.422 527.881 424.981 533.385C407.523 600.026 389.889 666.621 372.286 733.231C371.074 737.829 369.671 742.374 368.468 746.972C367.34 751.294 365.914 755.693 360.594 755.685C355.273 755.685 354.698 750.88 353.724 747.034C342.576 703.07 331.528 659.09 320.38 615.126C315.243 594.867 309.953 574.654 304.701 554.426C304.356 553.091 303.75 551.824 303.298 550.596C299.786 549.544 297.647 551.855 295.309 553.221C272.952 566.302 250.702 579.575 228.261 592.51C223.998 594.967 219.29 600.371 214.253 596.679C208.902 592.764 213.203 587.037 214.713 582.285C223.27 555.325 231.941 528.395 240.612 501.465C243.196 493.451 242.982 493.044 234.571 491.025C191.651 480.731 148.746 470.413 105.819 460.149C101.364 459.082 96.3039 458.43 95.4989 452.956C94.6708 447.329 99.2404 444.589 103.327 442.109C142.942 418.074 181.691 392.61 221.798 369.365C226.727 366.51 231.259 362.871 236.373 360.414C243.756 356.868 243.541 351.924 241.164 345.215C232.432 320.573 224.075 295.8 215.656 271.043C214.759 268.402 212.904 265.661 214.161 262.829C216.454 257.655 220.065 255.528 226.168 257.133C249.568 263.266 273.136 268.763 296.505 275.004C302.8 276.685 305.046 274.728 306.296 268.947C307.898 261.524 310.083 254.223 312.023 246.869C327.633 187.367 342.929 129.002 358.217 70.6284C358.577 69.2466 358.83 67.8341 359.29 66.4907C360.563 62.7828 362.112 59.1825 366.842 59.1211C371.404 59.0597 372.792 62.683 373.811 66.0838C379.117 83.8476 384.254 101.657 389.452 119.452C401.65 161.19 413.841 202.928 426.054 244.666C426.775 247.122 426.867 249.886 429.206 251.728C432.786 251.89 435.401 249.571 438.176 247.898C460.334 234.494 482.43 220.991 504.542 207.526C505.761 206.782 506.964 206.022 508.222 205.338C511.166 203.749 514.294 201.723 517.461 204.264C520.543 206.735 519.669 210.42 518.795 213.583C515.621 225.029 512.308 236.444 508.866 247.813C503.353 266.007 497.894 284.224 491.983 302.294C490.036 308.252 491.998 310.485 497.534 311.622C530.057 318.285 562.589 324.941 595.058 331.857C608.974 334.82 622.798 338.26 636.591 341.775C644.327 343.748 645.845 349.705 640.171 355.417Z" fill="#313131"/>
<path d="M636.591 341.775C622.798 338.26 608.974 334.82 595.058 331.857C562.589 324.941 530.057 318.285 497.534 311.622C491.998 310.485 490.036 308.252 491.983 302.294C497.894 284.224 503.353 266.007 508.866 247.813C512.308 236.444 515.621 225.029 518.795 213.583C519.669 210.42 520.543 206.735 517.461 204.264C514.294 201.723 511.166 203.749 508.222 205.338C506.964 206.022 505.761 206.782 504.542 207.526C482.43 220.991 460.334 234.494 438.176 247.898C435.401 249.571 432.786 251.89 429.206 251.728C426.867 249.886 426.775 247.122 426.054 244.666C413.841 202.928 401.65 161.19 389.452 119.452C384.254 101.657 379.117 83.8476 373.811 66.0838C372.792 62.683 371.404 59.0597 366.842 59.1211C362.112 59.1825 360.563 62.7828 359.29 66.4907C358.83 67.8341 358.577 69.2466 358.217 70.6284C342.929 129.002 327.633 187.367 312.023 246.869C310.083 254.223 307.898 261.524 306.296 268.947C305.046 274.728 302.8 276.685 296.505 275.004C273.136 268.763 249.568 263.266 226.168 257.133C220.065 255.528 216.454 257.655 214.161 262.829C212.904 265.661 214.759 268.402 215.656 271.043C224.075 295.8 232.432 320.573 241.164 345.215C243.541 351.924 243.756 356.868 236.373 360.414C231.259 362.871 226.727 366.51 221.798 369.365C181.691 392.61 142.942 418.074 103.327 442.109C99.2404 444.589 94.6708 447.329 95.4989 452.956C96.3039 458.43 101.364 459.082 105.819 460.149C148.746 470.413 191.651 480.731 234.571 491.025C242.982 493.044 243.196 493.451 240.612 501.465C231.941 528.395 223.27 555.325 214.713 582.285C213.203 587.037 208.902 592.764 214.253 596.679C219.29 600.371 223.998 594.967 228.261 592.51C250.702 579.575 272.952 566.302 295.309 553.221C297.647 551.855 299.786 549.544 303.298 550.596C303.75 551.824 304.356 553.091 304.701 554.426C309.953 574.654 315.243 594.867 320.38 615.126C331.528 659.09 342.576 703.07 353.724 747.034C354.698 750.88 355.273 755.685 360.594 755.685C365.914 755.693 367.34 751.294 368.468 746.972C369.671 742.374 371.074 737.829 372.286 733.231C389.889 666.621 407.523 600.026 424.981 533.385C426.422 527.881 428.47 525.969 434.396 527.604C449.025 531.642 463.853 534.997 478.581 538.689C488.249 541.108 497.848 543.825 507.555 546.09C516.426 548.162 520.389 544.017 518.258 535.273C517.637 532.74 516.955 530.207 516.111 527.735C507.992 503.876 500.133 479.917 491.515 456.242C488.916 449.087 490.68 445.863 496.898 442.178C542.294 415.287 587.476 388.043 632.696 360.86C635.333 359.278 638.024 357.589 640.171 355.432V355.417C645.845 349.705 644.327 343.748 636.591 341.775Z" fill="#F5F6F6"/>
</g>
<defs>
<clipPath id="clip0_26_831">
<rect width="653" height="765" fill="white"/>
</clipPath>
</defs>
</svg>
