<svg width="800" height="381" viewBox="0 0 800 381" fill="none" xmlns="http://www.w3.org/2000/svg">
<g clip-path="url(#clip0_26_784)">
<path d="M0 6.42133H142.963C170.449 6.42133 191.688 12.8427 206.68 25.6854C222.03 38.5281 229.704 56.5435 229.704 79.7317V381H301.454V378.86C297.527 372.795 294.671 365.66 292.887 357.455C291.459 348.893 290.745 336.229 290.745 319.462V293.242C290.745 270.053 284.498 253.108 272.004 242.406C259.868 231.347 240.77 225.817 214.712 225.817H56.7568V173.376H201.862C235.416 173.376 259.511 168.917 274.146 159.999C288.782 151.08 296.099 136.275 296.099 115.584C296.099 94.8932 288.782 80.0885 274.146 71.1699C259.511 62.2514 235.416 57.7921 201.862 57.7921H36.41L64.253 29.9663V381H0V6.42133Z" fill="#F5F6F6"/>
<path d="M348.121 105.417H410.232V381H348.121V105.417ZM348.121 6.42133H410.232V71.7051H348.121V6.42133Z" fill="#F5F6F6"/>
<path d="M499.14 123.076C499.14 101.315 503.959 85.618 513.597 75.9859C523.592 65.9972 539.12 61.0028 560.181 61.0028H619.079V0H598.733C573.745 0 561.252 13.0211 561.252 39.0632V381H499.14V123.076ZM450.951 105.417H619.079V150.367H450.951V105.417Z" fill="#F5F6F6"/>
<path d="M680.061 123.076C680.061 101.315 684.88 85.618 694.518 75.9859C704.513 65.9972 720.041 61.0028 741.101 61.0028H800V0H779.653C754.666 0 742.172 13.0211 742.172 39.0632V381H680.061V123.076ZM631.871 105.417H800V150.367H631.871V105.417Z" fill="#F5F6F6"/>
</g>
<defs>
<clipPath id="clip0_26_784">
<rect width="800" height="381" fill="white"/>
</clipPath>
</defs>
</svg>
