<svg version="1.1" id="Layer_1" xmlns:x="ns_extend;" xmlns:i="ns_ai;" xmlns:graph="ns_graphs;" xmlns="http://www.w3.org/2000/svg" xmlns:xlink="http://www.w3.org/1999/xlink" x="0px" y="0px" viewBox="0 0 223.5 100" style="enable-background:new 0 0 223.5 100;" xml:space="preserve">
 <style type="text/css">
  .st0{filter:url(#Adobe_OpacityMaskFilter);}
	.st1{fill-rule:evenodd;clip-rule:evenodd;fill:#FFFFFF;}
	.st2{mask:url(#uerl70w1hb_1_);fill-rule:evenodd;clip-rule:evenodd;fill:#1A4091;}
 </style>
 <metadata>
  <sfw xmlns="ns_sfw;">
   <slices>
   </slices>
   <sliceSourceBounds bottomLeftOrigin="true" height="100" width="223.5" x="-90" y="0.3">
   </sliceSourceBounds>
  </sfw>
 </metadata>
 <g>
  <g>
   <defs>
    <filter id="Adobe_OpacityMaskFilter" filterUnits="userSpaceOnUse" x="0" y="0" width="223.5" height="100">
     <feColorMatrix type="matrix" values="1 0 0 0 0  0 1 0 0 0  0 0 1 0 0  0 0 0 1 0">
     </feColorMatrix>
    </filter>
   </defs>
   <mask maskUnits="userSpaceOnUse" x="0" y="0" width="223.5" height="100" id="uerl70w1hb_1_">
    <g class="st0">
     <path id="dq25d5wi8a_1_" class="st1" d="M0,0h223.5v100H0V0z">
     </path>
    </g>
   </mask>
   <path class="st2" d="M202.5,55.4c0,0-1.6-1.7-2.9-3.7c-1.6-2.3-2.3-3.6-2.5-4c0,0,0-0.1-0.1-0.1c-0.1,0-1.5,0.5-2.8,1.6
			c-1,0.8-2.1,2.5-1.7,4.2c0.5,2.8,3.1,3.5,5.7,3.4c2.7-0.2,3.8-0.9,4.3-1.3C202.5,55.4,202.5,55.4,202.5,55.4z M200.6,40.3
			c0,1.6,0.9,3.1,1,3.4c0,0,0,0,0.1,0c0,0,0.1,0,0.2-0.1c0.7-0.2,3-1,4-2.2c1.1-1.3,1.5-2.4,1.5-3c0.1-1-0.4-2.2-2.7-2.2
			C202.4,36.4,200.6,38,200.6,40.3L200.6,40.3z M214.8,57.9c-0.1,0.9-1.1,1.1-2.1,1.3h-3.1c-1.4,0-2.7-0.3-3.7-0.9
			c-0.6-0.4-1.2-1-1.2-1s-3.1,2.4-8.5,2.4c-6.5-0.1-10.9-2.2-9.6-7.5c1.3-5.7,8.6-7.2,9.2-7.3c0.1,0,0-0.1,0-0.1s-1.2-1.8-0.8-3.6
			c0.7-3.7,4.8-7.3,11.3-7.3c3.1,0,6.5,1.5,6.5,4.4c0,4.5-8.6,7-10.1,7.4l-0.2,0.1c0,0,0.9,1.7,2,3.3c0.8,1.1,1.6,2.1,2.4,3.1l0,0
			c0,0,1-0.6,2-2.2c0.3-0.4,0.7-1.4,0.7-1.4c0.8-1.7,2.5-1.7,2.9-1.5c0,0.1-0.1,0.4-0.1,0.4c-0.3,1.4-1.1,2.9-1.5,3.7
			c-0.9,1.6-2,2.7-2.3,3c1.2,1.2,2.4,2.2,3.9,3c0.5,0.3,1,0.5,1.5,0.6C213.9,57.7,214.8,57.9,214.8,57.9L214.8,57.9z M138.9,79.5
			c-0.3-0.4-1.5-1-3.2-1c-6.2,0-11.5,6.6-12.9,11.2c-1.1,3.9,1.1,6.7,4.2,6.7c2.7,0,5.9-1.8,6.8-3.9c1.3-2.7,5-10.4,5.3-11.1
			C139.4,80.8,139.4,80.2,138.9,79.5L138.9,79.5z M153.7,65.4c0,0-14,29.9-14.5,30.9c-0.7,1.4-2.3,2.4-4.2,2.4h-3.9
			c-0.1,0-0.1-0.1-0.1-0.2c0.1-0.3,0.4-0.7,0.7-1.4l0.2-0.5c0.1-0.2,0.1-0.3-0.4,0c-1.3,0.9-3.9,2.4-8.2,2.4
			c-6.2,0-8.6-5.7-6.4-11.2c3.2-8,10.5-12,16.1-12c4.4,0,6.3,1.4,7.2,2.3c0.3,0.3,0.3,0.4,0.4,0.1c1.8-3.9,2.8-6.1,3.1-6.6
			c1.3-2.7,3.9-6,7.6-6.3c0.9-0.1,1.9-0.1,2.2-0.1C153.6,65.2,153.7,65.3,153.7,65.4L153.7,65.4z M32.6,92.4c1.4-3,2.9-6.1,3.5-7.4
			c1.8-3.8,6-6.5,8.9-6.5c2.3,0,3.3,1.3,2.5,2.9c-0.4,0.9-3.1,6.6-5.3,11.1c-1.3,2.8-2.5,5.2-2.8,5.9c-0.1,0.1,0,0.2,0.1,0.2h3.9
			c1.9,0,3.5-0.9,4.2-2.4c0.5-1,1.1-2.2,1.7-3.5c1.5-3.3,3.3-7,3.9-8.4c1.4-2.8,2-8.7-5.2-8.7c-3.9,0-6.2,1.6-7.8,2.8
			c-0.3,0.2-0.8,0.5-1.1,0.7c-0.3,0.2-0.3,0.1-0.3,0c0.1-0.2,6.7-14.2,7.4-15.9c0.1-0.1,0-0.2-0.1-0.2c-0.4,0-1.2,0-2.2,0
			c-3.8,0.2-6.6,3.7-7.9,6.5c-0.5,1.1-6.7,14.1-10.6,22.4l-0.2,0.4c-1.3,2.8-2.5,5.2-2.8,5.9c-0.1,0.1,0,0.2,0,0.2h3.9
			c1.9,0,3.5-0.9,4.2-2.4c0.5-1,1.1-2.2,1.7-3.5C32.3,92.8,32.6,92.4,32.6,92.4z M167.5,98.6c0,0.1,0,0.1,0.1,0.1h4
			c1.5,0,3.4-0.7,4.2-2.3l5.7-12.4c2.2-3.6,6.9-4.6,9.3-2.4c0.1,0.1,0.2,0.2,0.3,0c2.4-2.9,3.3-3.8,4.2-5.1c0.1-0.1,0-0.2-0.1-0.3
			c-0.5-0.3-1.4-0.5-2.3-0.5c-5.2,0-8.4,3.2-8.9,3.7c-0.2,0.2-0.3,0.3-0.4,0.3c-0.1,0.1-0.2,0-0.1-0.1l0,0.1l0-0.1
			c0.2-0.5,1.2-2.5,1.6-3.3c0-0.1,0-0.2-0.1-0.2c0,0-4.6-0.8-7.2,1.2c-0.3,0.2-0.8,0.7-1.1,1.4C176.7,78.8,167.6,98.5,167.5,98.6z
			 M219.9,99.3c-1.5,0-2.9-1.1-2.9-3c0-1.9,1.4-3,2.9-3l0.4,0c1.4,0.1,2.6,1.2,2.6,3C222.8,98.2,221.4,99.3,219.9,99.3L219.9,99.3z
			 M220.3,92.6l-0.4,0c-1.9,0-3.6,1.4-3.6,3.7c0,2.3,1.7,3.7,3.6,3.7c1.9,0,3.6-1.4,3.6-3.7C223.5,94.1,222,92.8,220.3,92.6z
			 M219.9,95.9h-0.8v-1h0.8c0.3,0,0.6,0.1,0.6,0.5C220.5,95.8,220.3,95.9,219.9,95.9L219.9,95.9z M221.5,95.4c0-0.9-0.5-1.2-1.3-1.3
			l-0.4,0h-1.5l0,4.2h0.9l0-1.8h0.4l1,1.8l1,0l-1.1-1.8C221,96.5,221.5,96.2,221.5,95.4L221.5,95.4z M109.8,76.2
			c0-0.1,0-0.2-0.1-0.2l-6.9,0c-0.1,0-0.2,0.1-0.2,0.2c-0.1,0.2-5.3,11.6-5.8,12.6c-0.5,1.1-1.1,2.2-1.6,3.4c-0.9,2-3.4,4.1-7.6,4.1
			c-2.1-0.1-2.7-1.9-2-4.1c0.6-1.7,7.4-16.1,7.4-16.1c0.1-0.1,0-0.2-0.1-0.2l-6.9,0c-0.1,0-0.2,0.1-0.2,0.2c-1,2-4.9,10.5-6.2,13.6
			c-1.6,3.6-0.9,9,4.4,9.1c4.8,0.1,8.1-2.1,8.7-2.6c0.2-0.1,0.3-0.2,0.4-0.3c0.1-0.1,0.2-0.1,0.1,0.1c0,0-0.9,2-1.1,2.3
			c-0.1,0.1,0,0.2,0.1,0.2h3.9c1.9,0,3.5-0.9,4.2-2.4c0.5-1,1.1-2.2,1.7-3.5C102.1,92.8,109.8,76.2,109.8,76.2z M125.5,65.3
			c0,0,0.1-0.2-0.1-0.2c-0.4,0-1.2,0-2.2,0.1c-3.8,0.2-6.6,3.7-7.9,6.5c0,0-12.2,25.9-12.6,26.7c-0.1,0.1-0.1,0.2,0,0.2h3.9
			c1.9,0,3.5-0.9,4.2-2.4L125.5,65.3z M153.1,85.6h11.6c0,0,0.2,0,0.3-0.2c0.1-0.4,0.5-1.5,0.7-2.6c0.2-1.5,0.7-5-3.3-5
			c-3.2,0-6,2.7-7.7,5c-0.8,1.1-1.3,2-1.7,2.6C153,85.6,153.1,85.6,153.1,85.6z M146.6,96.5c-2-2.1-2.7-4.9-1.8-8.1
			c0.9-3.2,2.6-5.4,3.1-6.1c3.7-4.4,9.4-6.6,15.3-6.6c5.8,0.1,8.8,3.9,8.8,7.4c0,2.2-0.9,4.2-0.9,4.2s0,0.2-0.2,0.2h-18.9
			c-0.1,0-0.1,0.1-0.2,0.1c-0.1,0.3-0.5,1.1-0.7,2c-0.4,2.2,0,6.2,6.1,6.2c3.7,0,6.7-2.1,8.4-3.5c1.1-0.9,2.2-0.3,2.4-0.1
			c-0.3,0.4-2.1,2.5-5.1,4.4c-2.4,1.5-5.3,2.5-9.1,2.5C151.4,99.1,148.5,98.4,146.6,96.5z M78.8,53c1.4-3,2.9-6.1,3.5-7.4
			c1.8-3.8,6-6.5,8.9-6.5c2.3,0,3.3,1.3,2.5,2.9c-0.4,0.9-3.1,6.6-5.3,11.1c-1.3,2.8-2.5,5.2-2.8,5.9c-0.1,0.1,0,0.2,0.1,0.2h3.9
			c1.9,0,3.5-0.9,4.2-2.4c0.5-1,1.1-2.2,1.7-3.5c1.5-3.3,3.3-7,3.9-8.4c1.4-2.8,2-8.7-5.2-8.7c-3.9,0-6.2,1.6-7.8,2.8
			c-0.3,0.2-0.8,0.5-1.1,0.7C85,40,85,40,85,39.9c0.1-0.2,6.8-14.5,7.6-16.2c0-0.1,0-0.2-0.1-0.2c-0.4,0-1.2,0-2.2,0
			c-3.8,0.2-6.6,3.7-7.9,6.5c-0.5,1.1-6.8,14.5-10.7,22.7l-0.2,0.4c-1.3,2.8-2.5,5.2-2.8,5.9c-0.1,0.1-0.1,0.2,0.1,0.2h3.9
			c1.9,0,3.5-0.9,4.2-2.4c0.5-1,1.1-2.2,1.7-3.5C78.6,53.5,78.8,53,78.8,53z M145.2,46.4c-0.6-0.4-1.9-0.9-4-0.6
			c-5.2,0.7-8.7,4.5-9.1,8c-0.3,2.1,1.5,3.3,3.2,3.3c3.6,0,6.4-1.8,7.4-3.9c0.2-0.5,2.3-5,2.8-6.1C145.6,46.9,145.4,46.6,145.2,46.4
			z M153.2,45.7l-3.5,7.6c-0.6,1.3-1.2,2.6-1.7,3.6c-0.7,1.4-2.3,2.4-4.2,2.4h-3.9c-0.1,0-0.1-0.1-0.1-0.2l0.8-1.7l0.2-0.5
			c0.2-0.3-0.2,0-0.6,0.3c-1.7,1.1-4.6,2.6-8.6,2.5c-4.3-0.1-7.3-3.7-5.4-8.3c1.9-4.7,7.5-7.4,12.8-7.9c3.5-0.3,6.3,0.6,7.3,1.8
			c0,0,0.8-1.6,1.4-2.7c1-2.1-1.1-4.3-5.1-3.9c-2.4,0.2-3.9,0.8-6.5,1.9c-1.1,0.4-2.1,0.3-2.4-0.7c1.9-1.2,6.2-3.6,11.2-3.6
			C154.5,36.3,154.8,42.5,153.2,45.7z M207.6,86.1c-3.6-1.9-7.8-2.8-7-5.3c0.6-2,2.8-2.6,5-2.6c2.9,0,5.3,0.9,6.7,1.6
			c0.1,0,1.6,0.7,2.5-1c0-0.1,0-0.1-0.1-0.2c-0.8-0.4-3.9-2.3-8.9-2.5c-7.3-0.3-11.5,2.5-12.8,6.1c-1.2,3.2,0.9,5.3,2.8,6.4
			c3,1.7,7.6,3.2,7,5.6c-0.5,1.9-1.9,2.7-6,2.7c-3,0-5.8-1.3-7.4-2.2c-1.1-0.6-2.4,0.5-2.7,0.8c0,0.1,0,0.1,0.1,0.2
			c0.7,0.5,4.4,3.4,10.6,3.4c5.6,0,11.2-2.4,12.9-6.5C211.3,90.2,210.3,87.5,207.6,86.1z M70.5,78.1c-6.3,0-11.8,11.3-11.8,15
			c0,2.8,1.7,4,3.9,4c4.1,0,10.3-7.6,11.3-14.4C74.5,78.8,72.4,78.1,70.5,78.1L70.5,78.1z M79.1,87.5C76.5,93.3,70.5,99,62.3,99
			c-8,0-10.4-5.7-9.1-10.1c2-7,7.8-12.8,17.9-12.8C77.9,76.1,82,81,79.1,87.5z M20.9,86.1c-3.6-1.9-7.8-2.7-7-5.3
			c0.6-2,2.8-2.6,5-2.6c2.9,0,5.2,0.9,6.7,1.6c0.1,0,1.6,0.7,2.5-1c0-0.1,0-0.1-0.1-0.2c-0.8-0.4-4-2.3-8.9-2.5
			c-7.3-0.3-11.5,2.5-12.8,6.1c-1.2,3.2,0.9,5.3,2.8,6.4c2.9,1.7,7.6,3.2,7,5.6c-0.5,1.9-1.9,2.7-6.1,2.7c-3,0-5.8-1.3-7.4-2.2
			c-1.1-0.6-2.4,0.5-2.7,0.8c0,0.1,0,0.1,0.1,0.2c0.7,0.6,4.5,3.4,10.6,3.4c5.6,0,11.2-2.4,12.9-6.5C24.6,90.2,23.6,87.6,20.9,86.1z
			 M175.7,40.3c-0.3-0.4-1.5-1-3.2-1c-6.1,0-11.5,6.5-12.8,11.1c-1.1,3.9,1.1,6.6,4.2,6.6c2.6,0,5.8-1.8,6.8-3.8
			c1.3-2.7,5-10.4,5.3-11.1C176.2,41.5,176.3,40.9,175.7,40.3z M190.5,26.3c0,0-14,29.7-14.5,30.7c-0.7,1.4-2.3,2.4-4.2,2.4l-3.9,0
			c-0.1,0-0.1-0.1,0-0.2c0.1-0.3,0.4-0.7,0.7-1.4l0.2-0.5c0.1-0.2,0.2-0.3-0.4,0c-1.3,0.9-3.9,2.4-8.1,2.4
			c-6.2-0.1-8.6-5.7-6.4-11.2c3.2-8,10.5-11.9,16-11.9c4.4,0,6.2,1.4,7.2,2.3c0.3,0.3,0.3,0.4,0.4,0.1c1.8-3.9,2.8-6,3.1-6.5
			c1.3-2.7,3.9-6,7.6-6.2c0.9-0.1,1.9-0.1,2.2-0.1C190.5,26.1,190.5,26.2,190.5,26.3z M108.2,46.2h11.6c0,0,0.2,0,0.3-0.2
			c0.1-0.4,0.5-1.5,0.7-2.6c0.2-1.5,0.7-5-3.3-5c-3.2,0-6,2.7-7.7,5c-0.8,1.1-1.3,2-1.7,2.6C108,46.2,108.1,46.2,108.2,46.2z
			 M101.7,57.1c-2-2.1-2.7-4.9-1.8-8.1c0.9-3.2,2.6-5.4,3.1-6.1c3.7-4.4,9.4-6.6,15.3-6.6c5.8,0,8.8,3.9,8.8,7.4
			c0,2.2-0.9,4.2-0.9,4.2s0,0.2-0.2,0.2h-18.9c-0.1,0-0.1,0.1-0.2,0.1c-0.1,0.3-0.5,1.1-0.7,2c-0.4,2.2,0,6.2,6.1,6.2
			c3.7,0,6.7-2.1,8.4-3.5c1.1-0.9,2.2-0.3,2.4-0.1c-0.3,0.4-2.1,2.5-5.1,4.4c-2.4,1.5-5.3,2.5-9.1,2.5
			C106.5,59.7,103.5,59,101.7,57.1z M23.1,43.8c5.3,1.1,13.2-0.6,20.3-5C54,32.2,59.6,21.9,55.8,15.9c0,0,0,0,0,0
			c-2.9-4.8-10.6-5.6-16.8-2.1c-0.3,0.2-0.7,0.4-1,0.6c-0.2,0.1-0.4,0.3-0.7,0.5c-0.2,0.2-0.5,0.3-0.4,0.5c0,0.1,0.1,0.2,0.2,0.2
			c4.7-0.4,8.7,0.9,10.7,3.9c3.4,5.4-1,14.3-9.9,19.8c-5.3,3.3-11,4.7-15.4,4l-1.1-0.2C21.3,43.2,21.7,43.5,23.1,43.8z M46.9,8.4
			c-5.3-1.1-13.2,0.6-20.3,5C16,20,10.4,30.3,14.2,36.3l0,0c2.9,4.8,10.6,5.6,16.8,2.1c0.3-0.2,0.7-0.4,1-0.6
			c0.2-0.1,0.4-0.3,0.7-0.5c0.2-0.2,0.5-0.3,0.4-0.5c0-0.1-0.1-0.2-0.2-0.2c-4.7,0.4-8.7-0.9-10.7-3.9c-3.4-5.4,1-14.3,9.9-19.8
			c5.3-3.3,11-4.7,15.4-4L48.7,9C48.7,9,48.3,8.7,46.9,8.4L46.9,8.4z M49.1,44.6C32.8,55.6,13,56.5,5,46.7
			c-8-9.8-1.3-26.8,15.1-37.8c16.3-11,36.1-12,44.1-2.1C72.2,16.7,65.4,33.6,49.1,44.6z">
   </path>
  </g>
 </g>
</svg>