<svg fill="none" height="370" viewBox="0 0 1376 370" width="1376" xmlns="http://www.w3.org/2000/svg">
<g clip-path="url(#clip0_1053_7116)">
<path d="M1137.57 358.561L1223.33 239.346L1138.99 122.56H1205.86C1210.22 129.844 1253.35 191.36 1257.71 198.143L1309.08 122.56H1373.07L1290.2 238.383L1375.96 358.561H1310.05L1255.28 279.585C1250.42 286.87 1206.33 351.315 1201.97 358.561H1137.53H1137.57Z" fill="#101D55"></path>
<path d="M978.313 58.116C963.281 58.116 943.432 64.8996 943.432 93.9613V122.561H998.202V171.472H943.432V358.562H886.734V171.472H845.531V122.561H886.734V92.4967C886.734 39.6922 920.652 7.70117 969.101 7.70117C983.17 7.70117 994.771 10.5919 998.664 12.5576V60.5442C995.272 59.5806 988.99 58.116 978.313 58.116Z" fill="#101D55"></path>
<path d="M657.865 222.388V358.562H601.669V122.561H656.439V154.05C671.933 126.916 700.07 115.777 726.241 115.777C783.902 115.777 811.538 157.442 811.538 209.322V358.562H755.341V218.996C755.341 189.934 742.275 166.654 706.892 166.654C674.901 166.654 657.942 191.36 657.942 222.388H657.865Z" fill="#101D55"></path>
<path d="M1102.49 358.561H1046.75V122.56H1102.49V358.561Z" fill="#101D55"></path>
<path d="M451.417 122.561L354.48 222.388L453.344 358.562H384.544L315.243 262.126L286.181 292.653V358.562H230.448V7.70117H286.181V217.994L376.797 122.522H451.417V122.561Z" fill="#101D55"></path>
<path d="M0.301025 295.081L49.2512 281.514C51.1783 302.828 67.1739 321.753 97.2377 321.753C120.479 321.753 132.621 309.149 132.621 294.618C132.621 282.015 123.91 272.34 104.985 268.447L70.1031 260.7C28.3992 251.45 6.62215 224.315 6.62215 191.862C6.62215 150.659 44.4332 115.777 93.3448 115.777C159.254 115.777 180.569 158.406 184.461 181.686L136.976 195.253C135.049 181.686 124.873 159.871 93.3448 159.871C73.495 159.871 59.4266 172.474 59.4266 187.005C59.4266 199.609 68.6385 208.821 83.1694 211.711L119.015 218.996C163.609 228.671 186.851 255.844 186.851 290.725C186.851 325.607 157.789 366.309 97.7002 366.309C29.3628 366.309 3.23032 321.714 0.301025 295.081Z" fill="#101D55"></path>
<path d="M1074.63 94.8875C1092.6 94.8875 1107.16 80.323 1107.16 62.3568C1107.16 44.3906 1092.6 29.8262 1074.63 29.8262C1056.67 29.8262 1042.1 44.3906 1042.1 62.3568C1042.1 80.323 1056.67 94.8875 1074.63 94.8875Z" fill="#101D55"></path>
<path d="M550.896 358.561H495.162V122.56H550.896V358.561Z" fill="#101D55"></path>
<path d="M523.041 94.8875C541.007 94.8875 555.572 80.323 555.572 62.3568C555.572 44.3906 541.007 29.8262 523.041 29.8262C505.075 29.8262 490.51 44.3906 490.51 62.3568C490.51 80.323 505.075 94.8875 523.041 94.8875Z" fill="#101D55"></path>
</g>
<defs>
<clipPath id="clip0_1053_7116">
<rect fill="white" height="370" width="1376"></rect>
</clipPath>
</defs>
</svg>